# xmcd CD database file
#
# Track frame offsets:
#	150
#	14613
#	27451
#	40873
#	54332
#	67625
#	90440
#	107130
#	124635
#	143976
#	156314
#	171151
#	183443
#	195908
#	209638
#	223986
#	238087
#	250686
#
# Disc length: 3524 seconds
#
# Revision: 0
# Processed by: cddbd v1.5.2PL0 Copyright (c) Steve Scherf et al.
# Submitted via: CDex 1.70beta2
#
DISCID=fd0dc212
DTITLE=Roy Eldridge - Jazz Roads CD111 - Swing - Vol.3 (1945-46)
DYEAR=2006
DGENRE=Jazz
TTITLE0=Artie Shaw And His Gramercy Five - Scuttlebutt 
TTITLE1=Artie Shaw And His Gramercy Five - The Gentle Grifter
TTITLE2=Artie Shaw And His Gramercy Five - Misterioso
TTITLE3=Artie Shaw And His Gramercy Five - Misterioso
TTITLE4=Artie Shaw And His Gramercy Five - Hop Skip And Jump
TTITLE5=Bill Stegmeyer And His Hot Eight - Tea For Two 
TTITLE6=Roy Eldridge And His V-Discatters - Old Rob Roy 
TTITLE7=Roy Eldridge And His V-Discatters - Roy Meets Horn 
TTITLE8=Roy Eldridge And His V-Discatters - I've Found A New Baby 
TTITLE9=Roy Eldridge And His Orchestra - All The Cats Join In 
TTITLE10=Roy Eldridge And His Orchestra - Ain't That A Shame 
TTITLE11=Roy Eldridge And His Orchestra - Hi Ho, Trailus Boat Whip 
TTITLE12=Roy Eldridge And His Orchestra - Tippin' Out 
TTITLE13=Roy Eldridge And His Orchestra - Yard Dog 
TTITLE14=Roy Eldridge And His Orchestra - Les Bounce 
TTITLE15=Roy Eldridge And His Orchestra - Lover Come Back To Me 
TTITLE16=Roy Eldridge And His Orchestra - Rockin' Chair 
TTITLE17=Roy Eldridge And His Orchestra - It's The Talk Of The Town 
EXTD=YEAR: 2006
EXTT0=
EXTT1=
EXTT2=
EXTT3=
EXTT4=
EXTT5=
EXTT6=
EXTT7=
EXTT8=
EXTT9=
EXTT10=
EXTT11=
EXTT12=
EXTT13=
EXTT14=
EXTT15=
EXTT16=
EXTT17=
PLAYORDER=
